<?xml version="1.0" standalone="no"?>
<!DOCTYPE svg PUBLIC "-//W3C//DTD SVG 20010904//EN"
 "http://www.w3.org/TR/2001/REC-SVG-20010904/DTD/svg10.dtd">
<svg version="1.0" xmlns="http://www.w3.org/2000/svg"
 width="10000.000000pt" height="1979.000000pt" viewBox="0 0 10000.000000 1979.000000"
 preserveAspectRatio="xMidYMid meet">
<metadata>
Created by potrace 1.16, written by Peter Selinger 2001-2019
</metadata>
<g transform="translate(0.000000,1979.000000) scale(0.100000,-0.100000)"
fill="#fff" stroke="none">
<path d="M10265 19010 c-395 -129 -1068 -726 -2002 -1776 -1139 -1282 -2493
-3037 -3813 -4944 -100 -146 -186 -269 -190 -273 -4 -4 -96 4 -206 17 -261 33
-630 72 -826 87 -203 15 -670 6 -828 -16 -769 -107 -1267 -425 -1536 -981 -30
-61 -57 -125 -60 -141 l-6 -30 709 -6 c389 -3 830 -11 978 -16 422 -16 917
-42 948 -49 l27 -7 -141 -220 c-1407 -2186 -2251 -3819 -2463 -4765 -47 -213
-59 -320 -53 -505 5 -182 21 -263 82 -400 75 -169 240 -362 430 -503 119 -89
316 -206 326 -194 4 4 70 151 147 327 807 1845 1733 3737 2662 5441 338 620
393 714 413 714 10 0 199 -23 420 -50 949 -119 2135 -285 2152 -301 2 -3 -4
-57 -15 -120 -61 -349 -144 -988 -175 -1339 -50 -577 -50 -1172 1 -1648 125
-1177 562 -1827 1312 -1948 121 -19 396 -19 536 1 528 74 1036 345 1513 808
l121 118 -29 -76 -30 -76 40 -47 c256 -303 618 -471 1024 -476 l139 -1 427
681 c234 374 455 723 491 775 250 368 771 1074 1024 1389 661 823 1312 1306
1890 1405 128 22 324 20 418 -4 399 -102 516 -481 367 -1186 -41 -195 -94
-395 -194 -724 -184 -613 -246 -909 -246 -1178 0 -359 104 -632 326 -858 208
-212 473 -334 824 -380 154 -20 443 -20 590 0 394 55 782 234 1156 531 209
167 528 503 721 759 31 42 59 74 61 71 2 -2 17 -54 33 -116 67 -253 177 -470
335 -660 191 -229 440 -387 724 -460 251 -64 575 -69 851 -14 692 140 1461
685 2221 1576 67 79 125 147 130 152 10 11 -38 -174 -118 -454 -142 -502 -324
-1038 -529 -1560 l-65 -165 -667 -331 c-659 -327 -957 -489 -1359 -737 -615
-379 -904 -628 -1178 -1013 -240 -338 -361 -583 -426 -869 -26 -115 -37 -383
-20 -507 34 -256 141 -476 304 -624 182 -165 418 -277 675 -319 143 -24 444
-17 585 14 835 180 1632 970 2442 2421 263 471 596 1166 850 1775 l58 140 236
117 c590 293 1161 680 1751 1186 169 145 587 563 700 700 l85 103 12 -212 c19
-331 58 -554 134 -776 186 -540 548 -840 1106 -919 222 -31 560 -15 801 37
674 146 1363 629 1995 1397 47 57 88 104 92 105 4 1 18 -47 30 -108 65 -319
198 -607 395 -855 74 -94 243 -262 335 -335 331 -260 753 -418 1249 -470 175
-18 587 -21 763 -5 763 69 1480 331 2198 804 864 569 1561 1332 2079 2274 73
133 270 532 264 536 -1 2 -86 69 -187 150 l-184 147 -30 -53 c-239 -427 -409
-689 -646 -997 -297 -386 -643 -747 -1016 -1058 -742 -620 -1454 -958 -2173
-1034 -151 -16 -508 -7 -632 16 -279 51 -520 170 -685 339 -44 46 -95 108
-113 139 -72 121 -168 374 -203 535 -37 174 -37 668 1 767 7 18 22 22 117 33
61 7 193 26 294 42 1025 169 1980 572 2820 1191 281 207 606 512 783 734 372
468 557 948 573 1485 22 755 -307 1161 -1016 1255 -144 20 -490 19 -661 -1
-959 -109 -1893 -672 -2791 -1679 -861 -967 -1376 -1920 -1530 -2835 l-23
-135 -80 -120 c-369 -548 -793 -1015 -1125 -1237 -259 -173 -475 -248 -715
-248 -256 0 -439 96 -572 300 -255 391 -269 1161 -44 2431 34 197 42 226 63
244 13 11 84 70 158 131 829 685 1648 1632 2446 2829 907 1361 1535 2594 1959
3850 270 797 373 1406 310 1828 -39 265 -121 535 -230 763 -77 159 -130 240
-212 320 -89 89 -173 128 -283 133 -114 4 -175 -10 -306 -74 -162 -79 -298
-186 -526 -414 -342 -343 -659 -749 -1099 -1406 -1005 -1504 -1899 -3233
-2715 -5255 -560 -1387 -929 -2598 -1081 -3544 -17 -107 -18 -109 -103 -247
-181 -293 -388 -556 -650 -823 -528 -537 -1126 -970 -1721 -1246 -80 -37 -146
-66 -148 -65 -1 1 34 103 78 226 310 853 599 1742 829 2544 273 953 415 1590
446 1991 l6 80 -136 27 c-75 15 -195 33 -266 39 -430 38 -729 -113 -942 -476
-146 -249 -296 -706 -417 -1271 l-41 -188 -86 -121 c-667 -932 -1413 -1690
-1972 -2002 -130 -72 -242 -118 -371 -151 -83 -21 -111 -24 -225 -20 -104 3
-142 8 -187 26 -167 65 -275 206 -323 421 -11 48 -19 142 -22 260 -23 822 380
1747 1183 2715 146 176 500 528 657 653 187 150 408 292 602 387 261 128 471
198 742 246 111 20 162 23 383 23 231 0 262 -2 332 -21 173 -49 318 -128 450
-245 l67 -59 32 16 c62 33 178 173 216 262 48 114 58 273 23 384 -80 262 -348
449 -747 525 -134 25 -582 31 -783 10 -721 -76 -1389 -323 -2095 -775 -639
-409 -1300 -1009 -1713 -1552 -467 -618 -757 -1314 -832 -2004 -12 -110 -12
-110 -68 -190 -214 -309 -489 -644 -701 -855 -218 -217 -397 -352 -586 -444
-182 -89 -319 -121 -490 -114 -94 3 -119 8 -172 32 -153 70 -232 231 -233 471
0 243 98 607 310 1145 361 915 461 1471 359 1997 -56 289 -196 576 -392 803
-184 213 -432 355 -735 421 -124 27 -472 38 -620 19 -941 -116 -1928 -831
-3005 -2177 -89 -111 -162 -201 -163 -200 -2 1 13 61 32 132 186 697 281 1263
253 1513 -27 245 -169 385 -438 432 -93 16 -320 14 -426 -5 -235 -42 -435
-141 -637 -319 l-88 -77 0 -77 c0 -396 -112 -1006 -307 -1667 l-65 -220 -120
-205 c-393 -667 -719 -1114 -1062 -1455 -196 -196 -337 -304 -509 -390 -165
-82 -273 -109 -414 -103 -120 6 -186 29 -268 95 -187 152 -296 476 -336 1003
-15 197 -6 807 16 1090 113 1478 467 3219 1116 5490 698 2439 1251 3869 1646
4257 l53 52 -53 49 c-317 299 -677 538 -936 623 -83 28 -113 33 -221 36 -104
2 -135 0 -185 -17z m-776 -1736 c-674 -1588 -1273 -3416 -1669 -5094 -51 -216
-158 -693 -180 -805 -7 -33 -14 -63 -16 -66 -5 -9 -169 23 -1069 212 -445 93
-877 183 -960 201 -82 17 -152 32 -154 34 -2 2 81 148 185 326 1545 2657 2804
4379 3844 5261 36 30 66 54 67 53 1 -1 -20 -56 -48 -122z m23581 13 c0 -69
-22 -257 -46 -387 -102 -560 -380 -1312 -848 -2290 -700 -1462 -1541 -2802
-2415 -3845 -93 -112 -411 -475 -416 -475 -12 0 200 615 350 1015 501 1338
1291 3000 2033 4275 299 515 646 1039 895 1354 110 139 300 327 362 359 70 36
85 35 85 -6z m3306 -5654 c125 -66 169 -201 145 -443 -39 -380 -199 -740 -489
-1100 -183 -226 -491 -514 -802 -749 -595 -451 -1152 -740 -1695 -882 -144
-37 -384 -83 -392 -75 -6 5 77 229 138 376 76 180 264 551 365 720 387 648
940 1306 1427 1698 212 171 486 330 692 402 161 57 292 80 440 77 111 -2 136
-6 171 -24z m-13442 -7360 c-39 -91 -214 -455 -301 -623 -300 -580 -565 -996
-854 -1345 -118 -142 -398 -419 -502 -497 -186 -138 -301 -189 -445 -196 -89
-4 -96 -3 -158 28 -132 65 -194 213 -194 463 0 191 40 346 135 525 74 139 151
238 305 393 328 329 919 716 1785 1168 127 66 233 120 237 120 4 1 0 -16 -8
-36z"/>
<path d="M41845 18983 c-66 -180 -272 -479 -600 -873 -275 -330 -388 -477
-488 -640 -63 -102 -132 -252 -151 -326 -73 -283 106 -568 511 -815 l95 -58
102 142 c96 135 170 231 530 692 409 522 638 888 696 1110 43 164 25 324 -52
450 -126 207 -376 365 -577 365 l-48 0 -18 -47z"/>
<path d="M60680 18983 c-117 -12 -331 -60 -460 -102 -602 -199 -1138 -651
-1607 -1356 -243 -365 -580 -975 -804 -1455 -251 -539 -546 -1296 -805 -2065
-53 -159 -98 -292 -100 -293 -4 -6 -202 127 -267 180 -359 293 -560 644 -644
1123 -26 146 -25 605 0 760 51 305 137 542 277 754 33 51 60 95 58 96 -2 2
-57 -1 -124 -5 -290 -21 -541 -111 -752 -270 -103 -77 -270 -253 -355 -370
-78 -110 -195 -339 -232 -454 -159 -497 -63 -995 279 -1453 99 -134 337 -373
473 -476 272 -207 671 -413 1011 -522 31 -10 52 -22 49 -29 -38 -101 -555
-1677 -767 -2336 -377 -1171 -454 -1393 -722 -2085 -180 -464 -434 -1045 -533
-1220 -12 -22 -48 -88 -79 -146 l-56 -107 -132 34 c-538 137 -1131 248 -1613
301 -205 23 -855 26 -1005 5 -396 -56 -657 -161 -824 -330 -143 -145 -203
-292 -213 -522 -16 -378 150 -745 501 -1108 242 -250 507 -420 814 -522 238
-79 447 -110 741 -110 290 -1 497 32 766 121 418 139 813 394 1217 787 131
128 139 134 165 124 16 -5 343 -145 728 -310 1104 -474 1381 -584 2115 -845
754 -268 1192 -379 1702 -432 191 -20 539 -20 678 0 402 57 744 219 1049 498
246 224 459 524 650 917 86 178 196 439 188 447 -3 2 -65 -23 -138 -56 -348
-154 -666 -248 -1014 -303 -189 -29 -588 -36 -835 -14 -865 78 -2122 359
-3970 888 -250 72 -457 132 -458 133 -2 2 39 72 91 157 656 1065 1418 2880
2239 5329 l152 456 207 6 c1002 32 1846 266 2613 727 479 288 821 610 1180
1113 432 605 714 1270 807 1901 59 406 47 808 -36 1131 -105 412 -305 695
-652 925 -307 204 -638 330 -986 375 -108 14 -464 19 -567 8z m565 -708 c230
-60 369 -251 415 -570 13 -91 13 -365 0 -496 -44 -444 -207 -991 -439 -1474
-230 -479 -548 -918 -969 -1342 -599 -602 -1173 -898 -1889 -976 -24 -3 -43
-3 -43 0 0 13 340 1029 436 1305 235 672 423 1150 664 1683 102 227 300 629
372 760 235 422 496 755 728 924 107 79 261 155 365 180 101 25 276 27 360 6z
m-8925 -11520 c326 -40 760 -151 1295 -330 138 -46 268 -91 289 -100 l39 -17
-89 -89 c-193 -196 -445 -399 -591 -476 -106 -57 -265 -108 -398 -129 -151
-23 -475 -15 -617 15 -297 64 -573 212 -715 383 -91 109 -133 221 -133 355 0
222 142 349 440 396 67 11 368 5 480 -8z"/>
<path d="M83033 18851 c-571 -91 -1295 -869 -2182 -2346 -728 -1210 -1346
-2475 -1917 -3916 -605 -1530 -1026 -2906 -1224 -4001 -19 -104 -21 -111 -91
-215 -184 -275 -376 -509 -595 -724 -241 -235 -448 -385 -714 -518 -134 -66
-434 -180 -445 -169 -3 2 2 42 9 88 39 242 50 388 50 650 0 289 -10 407 -65
720 -76 437 -206 913 -419 1530 -322 931 -438 1313 -515 1695 -64 320 -64 462
0 795 40 206 44 274 21 353 -34 118 -118 201 -239 239 -93 29 -275 30 -382 4
-286 -72 -469 -292 -561 -673 -40 -166 -55 -302 -61 -571 l-6 -253 -67 -137
c-362 -741 -866 -1455 -1549 -2195 -155 -168 -180 -186 -369 -267 l-53 -23
-63 62 c-48 48 -65 59 -73 49 -5 -7 -35 -60 -66 -119 -55 -104 -57 -106 -139
-159 -112 -73 -288 -250 -365 -366 -93 -141 -153 -304 -188 -509 -18 -111 -15
-105 -154 -285 -414 -534 -965 -1019 -1406 -1238 -210 -104 -346 -142 -515
-142 -278 0 -440 122 -512 388 -29 107 -31 342 -5 457 30 126 84 288 148 438
98 228 167 359 434 822 241 419 395 740 425 889 25 123 -13 227 -119 329 -84
81 -178 136 -344 203 -72 29 -125 55 -117 58 8 2 51 7 95 11 371 29 660 191
784 438 69 138 84 212 85 427 1 199 -11 278 -61 430 -151 450 -601 822 -1176
969 -218 56 -312 66 -647 66 -325 0 -388 -6 -660 -61 -821 -168 -1715 -710
-2561 -1554 -315 -314 -549 -586 -770 -895 -800 -1118 -1221 -2281 -1150
-3173 42 -532 245 -914 620 -1170 257 -176 517 -252 866 -252 400 -1 742 106
1093 340 356 238 896 768 1431 1403 l116 137 7 -117 c29 -519 325 -1041 723
-1276 219 -129 466 -188 793 -187 185 0 282 9 443 40 507 98 1059 403 1559
862 147 135 369 363 487 501 51 59 96 108 99 110 4 1 17 -44 30 -100 63 -281
199 -598 362 -843 119 -179 199 -276 325 -396 342 -326 796 -510 1399 -565
198 -18 668 -7 843 21 340 52 586 127 870 265 231 112 395 226 574 400 211
205 375 443 487 707 26 62 31 68 64 74 499 85 924 273 1300 575 138 110 332
305 450 452 l95 118 6 -403 c8 -489 30 -733 94 -1053 95 -471 237 -751 436
-859 273 -149 638 8 939 404 296 391 690 1181 945 1895 264 741 493 1209 856
1745 134 198 212 294 354 435 189 188 368 301 570 361 120 35 335 45 448 20
233 -52 375 -198 439 -451 20 -80 23 -113 22 -295 -1 -176 -4 -226 -27 -355
-42 -235 -111 -531 -203 -869 -218 -805 -285 -1138 -285 -1418 0 -367 111
-656 344 -891 200 -203 468 -324 812 -367 123 -16 443 -13 580 5 508 66 995
285 1445 649 233 189 509 466 735 738 52 62 98 113 102 113 3 0 15 -49 25
-110 94 -565 417 -1057 903 -1375 276 -181 680 -312 1087 -355 172 -18 595
-20 768 -4 761 69 1478 331 2195 803 389 256 800 599 1090 910 l109 117 29
-138 c65 -315 200 -640 375 -903 119 -179 199 -276 325 -396 342 -326 796
-510 1399 -565 198 -18 668 -7 843 21 340 52 586 127 870 265 231 112 395 226
574 400 211 205 375 443 487 707 26 62 31 68 64 74 880 150 1557 633 2053
1464 143 240 303 584 416 897 l30 82 -108 80 c-60 45 -112 81 -117 81 -5 0
-34 -46 -64 -102 -201 -373 -452 -747 -683 -1013 -121 -141 -345 -360 -467
-457 -234 -187 -520 -346 -779 -432 -78 -26 -144 -46 -146 -44 -3 2 2 42 9 88
39 242 50 388 50 650 0 289 -10 407 -65 720 -76 437 -206 913 -419 1530 -322
931 -438 1313 -515 1695 -64 320 -64 462 0 795 40 206 44 274 21 353 -34 118
-118 201 -239 239 -93 29 -275 30 -382 4 -286 -72 -469 -292 -561 -673 -40
-166 -55 -302 -61 -571 l-6 -253 -67 -137 c-363 -743 -874 -1467 -1553 -2199
l-150 -161 -128 -61 c-70 -34 -129 -61 -132 -61 -2 0 -33 23 -67 50 l-63 50
-22 -37 c-12 -21 -38 -68 -58 -105 -29 -52 -47 -72 -84 -94 -183 -106 -392
-324 -483 -504 -42 -83 -88 -222 -113 -341 l-22 -106 -88 -104 c-159 -187
-369 -407 -532 -559 -842 -782 -1649 -1205 -2463 -1291 -151 -16 -508 -7 -632
16 -279 51 -520 170 -685 339 -44 46 -95 108 -113 139 -72 121 -168 374 -203
535 -37 174 -37 668 1 767 7 18 22 22 117 33 61 7 193 26 294 42 1025 169
1980 572 2820 1191 281 207 606 512 783 734 372 468 557 948 573 1485 22 755
-307 1161 -1016 1255 -144 20 -490 19 -661 -1 -959 -109 -1893 -672 -2791
-1679 -842 -945 -1350 -1872 -1520 -2775 -21 -115 -22 -115 -87 -200 -424
-549 -957 -1063 -1374 -1326 -195 -123 -410 -214 -575 -244 -80 -14 -245 -14
-308 0 -116 26 -219 108 -269 214 -64 136 -82 333 -48 531 39 224 137 542 284
920 225 579 288 762 358 1045 44 178 74 347 91 510 15 143 6 481 -15 610 -67
391 -238 751 -471 986 -183 186 -424 304 -730 360 -120 22 -506 31 -647 14
-470 -54 -898 -241 -1322 -579 -312 -250 -545 -516 -806 -919 -456 -708 -731
-1264 -1100 -2222 -54 -140 -112 -286 -128 -324 l-30 -70 -8 120 c-5 65 -8
223 -7 349 7 863 203 1835 568 2826 l46 126 102 63 c572 353 1149 871 1679
1506 568 683 1149 1594 1652 2594 446 885 713 1649 801 2290 22 155 31 517 16
648 -43 397 -213 785 -413 943 -128 100 -302 145 -465 120z m-7 -1848 c-55
-422 -267 -983 -687 -1823 -345 -688 -594 -1125 -935 -1640 -382 -578 -749
-1033 -1182 -1464 l-170 -169 73 209 c371 1066 887 2165 1476 3145 428 712
799 1260 1060 1564 105 124 259 269 322 305 64 37 64 37 43 -127z m8060 -5370
c125 -66 169 -201 145 -443 -39 -380 -199 -740 -489 -1100 -183 -226 -491
-514 -802 -749 -595 -451 -1152 -740 -1695 -882 -144 -37 -384 -83 -392 -75
-6 5 77 229 138 376 76 180 264 551 365 720 387 648 940 1306 1427 1698 212
171 486 330 692 402 161 57 292 80 440 77 111 -2 136 -6 171 -24z m-23091
-226 c246 -81 398 -268 459 -564 52 -247 37 -629 -36 -920 -20 -79 -21 -81
-43 -71 -35 16 -110 1 -145 -29 -17 -14 -131 -163 -253 -332 -730 -1001 -1445
-1916 -1782 -2277 -171 -184 -732 -723 -850 -817 -239 -192 -487 -336 -680
-394 -79 -23 -108 -27 -230 -27 -139 -1 -141 -1 -207 32 -156 77 -228 253
-228 559 0 827 396 1837 1153 2938 795 1157 1538 1777 2297 1915 84 16 141 19
285 16 163 -3 188 -5 260 -29z m5949 -977 c53 -206 129 -505 170 -665 137
-535 192 -802 270 -1310 64 -417 70 -496 71 -880 0 -295 -3 -365 -18 -445 -10
-52 -22 -99 -27 -104 -22 -22 -421 108 -642 209 -564 257 -1079 694 -1419
1204 l-77 114 99 109 c387 426 893 1156 1384 1995 49 84 90 151 91 150 1 -1
45 -171 98 -377z m21600 0 c53 -206 129 -505 170 -665 137 -535 192 -802 270
-1310 64 -417 70 -496 71 -880 0 -295 -3 -365 -18 -445 -10 -52 -22 -99 -27
-104 -22 -22 -421 108 -642 209 -564 257 -1079 694 -1419 1204 l-77 114 99
109 c387 426 893 1156 1384 1995 49 84 90 151 91 150 1 -1 45 -171 98 -377z
m-23488 -2622 c98 -120 321 -345 454 -458 519 -444 1021 -714 1599 -859 l151
-37 -52 -87 c-207 -340 -484 -530 -863 -592 -120 -20 -367 -19 -481 0 -275 48
-520 189 -692 399 -216 262 -354 576 -408 926 -20 126 -23 432 -6 502 35 140
95 232 177 269 22 10 43 19 47 19 3 0 37 -37 74 -82z m21600 0 c98 -120 321
-345 454 -458 519 -444 1021 -714 1599 -859 l151 -37 -52 -87 c-207 -340 -484
-530 -863 -592 -120 -20 -367 -19 -481 0 -275 48 -520 189 -692 399 -216 262
-354 576 -408 926 -20 126 -23 432 -6 502 35 140 95 232 177 269 22 10 43 19
47 19 3 0 37 -37 74 -82z"/>
<path d="M44091 13050 c-327 -46 -537 -273 -637 -687 -40 -166 -55 -302 -61
-571 l-6 -253 -67 -137 c-362 -741 -866 -1455 -1549 -2195 -163 -177 -179
-188 -442 -297 -261 -109 -391 -192 -540 -347 -228 -237 -326 -485 -360 -917
-13 -165 -6 -437 16 -615 52 -412 194 -802 413 -1131 119 -179 199 -276 325
-396 333 -318 765 -497 1344 -559 163 -18 580 -20 733 -5 557 56 1032 229
1420 519 100 74 286 256 370 361 117 147 234 344 306 512 26 62 31 68 64 74
880 150 1557 633 2053 1464 143 240 303 584 416 897 l30 82 -108 80 c-60 45
-112 81 -117 81 -5 0 -34 -46 -64 -102 -201 -373 -452 -747 -683 -1013 -121
-141 -345 -360 -467 -457 -234 -187 -520 -346 -779 -432 -78 -26 -144 -46
-146 -44 -3 2 2 42 9 88 39 242 50 388 50 650 0 289 -10 407 -65 720 -76 437
-206 913 -419 1530 -322 931 -438 1313 -515 1695 -64 320 -64 462 0 795 20
102 36 211 36 242 1 164 -96 301 -247 348 -76 23 -222 33 -313 20z m-457
-2620 c53 -206 129 -505 170 -665 137 -535 192 -802 270 -1310 64 -417 70
-496 71 -880 0 -295 -3 -365 -18 -445 -10 -52 -22 -99 -27 -104 -22 -22 -421
108 -642 209 -564 257 -1079 694 -1419 1204 l-77 114 99 109 c387 426 893
1156 1384 1995 49 84 90 151 91 150 1 -1 45 -171 98 -377z m-1888 -2622 c98
-120 321 -345 454 -458 519 -444 1021 -714 1599 -859 l151 -37 -52 -87 c-207
-340 -484 -530 -863 -592 -120 -20 -367 -19 -481 0 -275 48 -520 189 -692 399
-216 262 -354 576 -408 926 -20 126 -23 432 -6 502 35 140 95 232 177 269 22
10 43 19 47 19 3 0 37 -37 74 -82z"/>
</g>
</svg>
